<svg width="44" height="44" viewBox="0 0 44 44" fill="none" xmlns="http://www.w3.org/2000/svg">
<g filter="url(#filter0_d_637_5353)">
<rect x="5" y="1" width="34" height="34" rx="17" fill="#FAB22A"/>
<rect x="4.25" y="0.25" width="35.5" height="35.5" rx="17.75" fill="#FAB22A" fill-opacity="0.2" stroke="#FAB22A" stroke-width="0.5"/>
<path d="M22.5304 7.00021C22.5817 7.00056 22.633 7.00092 22.6859 7.00128C23.0864 7.01004 23.4187 7.06537 23.7882 7.23001C23.8328 7.24877 23.8775 7.26753 23.9235 7.28685C24.7901 7.68565 25.3346 8.42348 25.6866 9.29356C25.7765 9.57747 25.7946 9.85663 25.7993 10.1527C25.8 10.1883 25.8008 10.2238 25.8015 10.2605C25.8001 10.403 25.7905 10.5068 25.7331 10.6277C25.7199 10.6556 25.6979 10.6833 25.6753 10.7042V10.7042C25.5748 10.7972 25.4755 10.8981 25.4975 11.0331C25.5454 11.3255 25.6556 11.5672 25.8085 11.8319C25.8525 11.9081 25.8949 11.9865 25.9148 12.0722C25.9275 12.1269 25.9342 12.1797 25.9354 12.2324C25.9408 12.4566 25.8434 12.6749 25.6986 12.8461C25.6346 12.9217 25.5597 12.9863 25.4647 13.0335V13.0335C25.4062 13.0639 25.3658 13.1205 25.3562 13.1857C25.3549 13.1942 25.3537 13.2027 25.3524 13.2113C25.2819 13.6116 25.0436 13.9212 24.7239 14.1562V14.1562C24.4671 14.2969 24.3428 14.6148 24.5124 14.8535C24.7395 15.1733 24.8844 15.2806 25.3184 15.5278C25.4667 15.6123 25.631 15.6695 25.8017 15.6733C26.0162 15.6781 26.2256 15.6571 26.4441 15.6194C26.9798 15.5927 27.3423 15.7062 27.7721 16.0336C27.8102 16.0626 27.8484 16.0915 27.8876 16.1212V16.1212C27.9292 16.153 27.9896 16.1311 28.0012 16.0801C28.0021 16.0763 28.0029 16.0726 28.0038 16.0688C28.0047 16.0648 28.0059 16.0608 28.0075 16.057C28.2075 15.5593 28.5916 15.2308 29.0584 14.9929C29.2685 14.9089 29.4988 14.8676 29.7277 14.8662C29.9541 14.8649 30.2086 14.9297 30.2748 15.1463V15.1463C30.2961 15.2161 30.3009 15.3032 30.3011 15.3762C30.3012 15.4052 30.3012 15.4344 30.3013 15.464C30.3018 15.5181 30.3018 15.5181 30.3024 15.5733C30.3033 15.6922 30.3027 15.8111 30.302 15.9301C30.3021 16.0129 30.3023 16.0957 30.3026 16.1785C30.3029 16.3519 30.3025 16.5253 30.3015 16.6988C30.3003 16.921 30.301 17.1432 30.3022 17.3654C30.303 17.5363 30.3027 17.7073 30.3022 17.8782C30.3021 17.9602 30.3022 18.0421 30.3027 18.124C30.3032 18.2386 30.3024 18.353 30.3013 18.4676C30.3012 18.4978 30.3012 18.5279 30.3011 18.5583C30.3009 18.6293 30.2981 18.7011 30.2794 18.7696C30.2778 18.7753 30.2762 18.7808 30.2746 18.7862C30.2111 18.9935 29.9585 19.0623 29.7418 19.0567V19.0567C29.6565 19.0557 29.6565 19.0557 29.5696 19.0546C29.4475 19.0416 29.3528 19.0146 29.2495 18.9743C29.2142 18.9606 29.1791 18.9963 29.1945 19.0308V19.0308C29.6499 20.055 30.0818 21.0888 30.5093 22.1251C30.5537 22.2326 30.6536 22.307 30.7693 22.3187V22.3187C30.8521 22.3274 30.9349 22.3361 31.0177 22.3449C31.0584 22.3489 31.0991 22.353 31.1411 22.3571C31.9107 22.4399 32.6234 22.8009 33.1515 23.3816C33.7506 24.1444 34.0541 24.9638 33.9921 25.9503C33.8927 26.829 33.5231 27.6908 32.8287 28.2552C31.9312 28.9112 31.0424 29.0914 29.9524 28.9597C29.8133 28.9264 29.6912 28.882 29.5598 28.8248C29.5143 28.8056 29.5143 28.8056 29.4678 28.786C28.5336 28.3832 27.9696 27.7726 27.57 26.8213V26.8213C27.4399 26.4025 27.0953 26.0802 26.6567 26.0802C25.0737 26.0802 23.4859 26.0802 21.8642 26.0802C21.5292 26.0802 21.2424 26.3201 21.1833 26.6498V26.6498C20.9328 27.465 20.3739 28.1505 19.6546 28.59C18.7327 29.0573 17.7578 29.0988 16.7907 28.773C16.2873 28.5822 15.9364 28.2733 15.5649 27.8927C15.5339 27.8624 15.5029 27.8321 15.4709 27.8008C15.1048 27.4129 14.7956 26.7622 14.7527 26.208C14.7473 26.138 14.6898 26.0816 14.6196 26.0834V26.0834C14.4282 26.0877 14.2368 26.0904 14.0454 26.0931C13.9789 26.0948 13.9124 26.0966 13.8439 26.0984C13.78 26.099 13.7161 26.0997 13.6503 26.1004C13.6261 26.1008 13.6018 26.1013 13.5775 26.1017C13.5073 26.103 13.4235 26.1006 13.3555 26.083V26.083C13.2281 26.05 13.1387 25.9423 13.1044 25.8153C13.0909 25.7654 13.0877 25.7113 13.0879 25.6345C13.0877 25.5883 13.0876 25.5421 13.0874 25.4945C13.0886 25.4453 13.0897 25.3961 13.0909 25.3454C13.0916 25.2944 13.0924 25.2433 13.0932 25.1907C13.1225 24.0204 13.434 22.7152 14.1415 21.7703C14.1827 21.7152 14.1827 21.7152 14.2248 21.6589C14.2289 21.6534 14.2331 21.6478 14.2372 21.6423C14.2582 21.6144 14.2384 21.5744 14.2035 21.5742V21.5742C13.9118 21.572 13.6201 21.5684 13.3284 21.564C13.2198 21.5626 13.1111 21.5615 13.0024 21.5607C12.8456 21.5596 12.689 21.5572 12.5322 21.5545C12.4841 21.5545 12.4359 21.5544 12.3863 21.5543C12.2985 21.5524 12.2168 21.5459 12.1395 21.5339C11.6201 21.4537 11.1371 21.0261 11.0901 20.5026V20.5026C11.0862 20.4609 11.0823 20.4192 11.0782 20.3761V20.3761C11.0737 20.3221 11.028 20.2809 10.9738 20.282C10.951 20.2825 10.9279 20.2829 10.9046 20.2834C10.7017 20.2872 10.4988 20.2895 10.2958 20.2915C10.208 20.2925 10.1202 20.2939 10.0324 20.2957C9.90616 20.2983 9.77992 20.2994 9.65362 20.3003C9.59487 20.3019 9.59487 20.3019 9.53493 20.3036C9.49153 20.3036 9.45278 20.3032 9.41696 20.301C9.19158 20.2873 8.99812 20.0916 9.0016 19.8658V19.8658V19.8658C9.00054 19.7971 9.00511 19.7269 9.03415 19.6646C9.0382 19.6559 9.04244 19.6476 9.04687 19.6395C9.13096 19.4875 9.32235 19.4359 9.49604 19.4311C9.54722 19.4297 9.59907 19.4298 9.65362 19.4313C9.69414 19.4316 9.73466 19.4319 9.77642 19.4322C9.9055 19.4333 10.0345 19.4359 10.1636 19.4386C10.2512 19.4396 10.3389 19.4406 10.4265 19.4414C10.5041 19.4422 10.5816 19.4432 10.6591 19.4444C10.8849 19.4478 11.0702 19.2662 11.0702 19.0404C11.0702 18.9737 11.0702 18.9067 11.0702 18.8394C11.0702 18.721 10.9722 18.6263 10.8539 18.6302V18.6302C10.76 18.6322 10.6661 18.6341 10.5722 18.6359C10.5252 18.6376 10.4782 18.6394 10.4297 18.6412C10.3459 18.6424 10.2823 18.6433 10.2317 18.6424C10.0054 18.6384 9.81533 18.435 9.81882 18.2087V18.2087V18.2087C9.81776 18.1399 9.82253 18.0699 9.85008 18.0069C9.85613 17.9931 9.86257 17.9803 9.8695 17.9682C9.95206 17.8248 10.1335 17.7759 10.2988 17.769C10.3979 17.7648 10.4973 17.7661 10.5977 17.7669C10.6514 17.7667 10.705 17.7665 10.7603 17.7663C10.8736 17.7661 10.987 17.7665 11.1003 17.7674C11.2739 17.7685 11.4473 17.7674 11.6209 17.7661C11.731 17.7662 11.8411 17.7665 11.9513 17.7669C12.0032 17.7664 12.0551 17.766 12.1086 17.7656C12.2049 17.7669 12.2754 17.7678 12.3302 17.7709C12.552 17.7833 12.7336 17.9865 12.7302 18.2087V18.2087V18.2087C12.7312 18.2774 12.7266 18.3476 12.6974 18.4098C12.6721 18.4639 12.6396 18.5045 12.5965 18.5444C12.5368 18.5997 12.4579 18.6298 12.3766 18.6343C12.3522 18.6357 12.3278 18.6366 12.3035 18.637C12.0766 18.6413 11.8874 18.8124 11.8874 19.0394C11.8874 19.1044 11.8874 19.1696 11.8874 19.2351C11.8874 19.3534 11.9854 19.4482 12.1037 19.4443V19.4443C12.1976 19.4423 12.2915 19.4404 12.3854 19.4386C12.4324 19.4369 12.4794 19.4351 12.5279 19.4333C12.6117 19.4321 12.6753 19.4312 12.7259 19.4321C12.9522 19.4361 13.1423 19.6395 13.1388 19.8658V19.8658V19.8658C13.1398 19.9346 13.1349 20.0045 13.1079 20.0677C13.1018 20.0819 13.0954 20.095 13.0884 20.1073C13.0072 20.2515 12.8238 20.2968 12.6583 20.2985C12.5764 20.2993 12.4943 20.2963 12.4109 20.2931C12.3656 20.2921 12.3202 20.2912 12.2735 20.2902V20.2902C12.1205 20.2869 12.0048 20.4625 12.1317 20.548C12.1529 20.5624 12.1769 20.5759 12.2045 20.5892C12.2177 20.5955 12.2316 20.6003 12.2458 20.6037C12.4391 20.6502 12.6225 20.6575 12.8211 20.6568C12.8624 20.6571 12.9038 20.6574 12.9463 20.6576C13.0822 20.6584 13.2181 20.6583 13.3541 20.6582C13.449 20.6584 13.5438 20.6586 13.6387 20.6589C13.8374 20.6592 14.0361 20.6592 14.2347 20.659C14.4888 20.6587 14.7428 20.6595 14.9969 20.6607C15.1928 20.6615 15.3887 20.6615 15.5846 20.6614C15.6783 20.6614 15.7719 20.6617 15.8656 20.6622C15.9967 20.6628 16.1278 20.6625 16.259 20.6619C16.2974 20.6623 16.3357 20.6627 16.3752 20.6631C16.3959 20.6629 16.4162 20.6625 16.4361 20.6618C16.8556 20.6473 17.1604 20.2816 17.1623 19.8618V19.8618C17.1628 19.8008 17.1633 19.7398 17.1638 19.6769C17.1637 19.6117 17.1637 19.5464 17.1636 19.4792C17.164 19.3777 17.164 19.3777 17.1643 19.2742C17.1647 19.1313 17.1647 18.9884 17.1644 18.8455C17.1641 18.6631 17.165 18.4808 17.1661 18.2984C17.1671 18.1235 17.1669 17.9485 17.1668 17.7735C17.1675 17.6759 17.1675 17.6759 17.1682 17.5762C17.1679 17.5081 17.1675 17.4428 17.1655 17.3797C17.1511 16.9207 16.7703 16.5972 16.3119 16.5709V16.5709C16.2423 16.5669 16.1727 16.5629 16.1032 16.559C16.0333 16.5549 15.975 16.6114 15.9768 16.6813V16.6813C15.981 16.8754 15.9837 17.0695 15.9863 17.2636C15.9888 17.3647 15.9888 17.3647 15.9915 17.4679C15.9921 17.5326 15.9928 17.5974 15.9935 17.6641C15.9937 17.6756 15.9939 17.687 15.9941 17.6985C15.9958 17.7959 15.9961 17.9065 15.9589 17.9966V17.9966C15.8836 18.1793 15.675 18.2575 15.4776 18.2669C15.4554 18.268 15.4319 18.2686 15.4065 18.2688C15.3646 18.2693 15.3226 18.2698 15.2794 18.2703C15.2116 18.2706 15.2116 18.2706 15.1425 18.271C15.0958 18.2713 15.0492 18.2716 15.0011 18.2719C14.9023 18.2724 14.8035 18.2727 14.7047 18.2729C14.5541 18.2734 14.4034 18.275 14.2528 18.2766C14.1567 18.277 14.0606 18.2772 13.9646 18.2774C13.9197 18.2781 13.8749 18.2787 13.8286 18.2794C13.7295 18.279 13.6419 18.2751 13.5589 18.2622C13.2818 18.2189 13.107 17.966 13.1082 17.6855V17.6855C13.1085 17.5914 13.1085 17.5914 13.1087 17.4954C13.1094 17.3967 13.1094 17.3967 13.11 17.2959C13.1103 17.2297 13.1105 17.1635 13.1107 17.0953V17.0953C13.1118 16.8198 12.8965 16.572 12.6217 16.5906C12.4486 16.6023 12.3313 16.6483 12.0758 16.7639C12.0085 16.7944 11.9484 16.8391 11.8996 16.8946V16.8946C11.8922 16.9029 11.8857 16.9102 11.8798 16.9167C11.7877 17.0179 11.63 17.0315 11.4986 16.9931V16.9931C11.3782 16.9579 11.2732 16.871 11.2188 16.758C11.2133 16.7465 11.2083 16.7351 11.2039 16.7235C11.1459 16.5726 11.1795 16.3996 11.2624 16.2609C11.3833 16.0586 11.5657 15.9134 11.787 15.7961C12.02 15.6982 12.2433 15.7007 12.4925 15.702C12.5417 15.7017 12.591 15.7013 12.6417 15.7009C12.8036 15.7 12.9655 15.7002 13.1274 15.7005C13.2404 15.7002 13.3535 15.7 13.4665 15.6997C13.7031 15.6992 13.9397 15.6993 14.1763 15.6998C14.479 15.7004 14.7816 15.6994 15.0843 15.6979C15.3176 15.6969 15.551 15.6969 15.7843 15.6972C15.8959 15.6972 16.0074 15.6969 16.119 15.6963C16.2752 15.6955 16.4314 15.6961 16.5876 15.697C16.6562 15.6962 16.6562 15.6962 16.7262 15.6954C17.0602 15.6994 17.2903 15.7968 17.5531 15.964C17.6015 15.9948 17.666 15.9646 17.6718 15.9076V15.9076C17.869 14.9568 18.5781 13.9169 19.3585 13.376C19.6087 13.2157 19.8621 13.0763 20.1292 12.9551C20.2148 12.9163 20.2346 12.8019 20.165 12.7388V12.7388C19.458 12.0132 19.2226 11.1953 19.2158 10.199C19.2315 9.33138 19.6137 8.51639 20.2128 7.90323C20.8809 7.30928 21.6404 6.99068 22.5304 7.00021ZM20.8513 8.54084C20.6193 8.76872 20.4559 9.00767 20.315 9.30145C20.2939 9.34324 20.2729 9.38503 20.2511 9.42809C20.0235 9.95228 20.0305 10.5996 20.1937 11.1431C20.4524 11.8067 20.9036 12.297 21.5362 12.6059C21.681 12.6624 21.8241 12.703 21.972 12.7397C22.0389 12.7563 22.1034 12.7057 22.1041 12.6367V12.6367C22.1064 12.4697 22.1095 12.3028 22.1133 12.1358C22.1147 12.064 22.1158 11.9922 22.1165 11.9204C22.1229 11.3179 22.1942 10.8289 22.6134 10.3764C22.9549 10.0721 23.2889 9.9717 23.7347 9.95829C23.7684 9.95721 23.8022 9.95614 23.8369 9.95503C23.9441 9.95165 24.0513 9.94859 24.1585 9.94554C24.2314 9.94331 24.3043 9.94105 24.3772 9.93877C24.4439 9.9367 24.5107 9.93466 24.5774 9.93266C24.7469 9.92759 24.8661 9.76428 24.8183 9.60165V9.60165C24.8009 9.54202 24.7835 9.48239 24.7656 9.42096C24.5768 8.86423 24.1388 8.40594 23.6286 8.1395C22.6439 7.68319 21.6818 7.82777 20.8513 8.54084ZM23.542 10.8547C23.3432 10.9374 23.103 11.1035 23.0233 11.3035C22.8826 11.6562 22.9029 12.0399 22.9103 12.4378C22.9111 12.5105 22.9118 12.5832 22.9124 12.6559V12.6559C22.9157 12.9789 23.1041 13.284 23.4146 13.3732C23.5551 13.4136 23.6972 13.4404 23.8479 13.4483C24.0112 13.4569 24.1823 13.4255 24.3058 13.3182C24.341 13.2876 24.3716 13.2536 24.3996 13.2147C24.4821 13.1002 24.5214 12.9615 24.556 12.8247C24.5608 12.8058 24.5655 12.7868 24.5703 12.7679C24.6208 12.5831 24.6592 12.4826 24.8193 12.3763V12.3763C24.9039 12.3343 24.9508 12.2401 24.9219 12.1501C24.8857 12.0375 24.8384 11.9317 24.7874 11.8196V11.8196C24.5431 11.2397 24.123 10.6132 23.542 10.8547V10.8547ZM19.4467 14.5319C19.4185 14.5599 19.3903 14.5879 19.3613 14.6168C18.5953 15.4436 18.2723 16.7149 18.0772 17.8009C18.0709 17.8358 18.0645 17.8707 18.058 17.9066V17.9066C17.9929 18.298 18.3382 18.623 18.735 18.623C19.4131 18.623 20.0938 18.623 20.7845 18.623C21.1748 18.623 21.5211 18.3723 21.643 18.0015V18.0015C21.6987 17.8809 21.7576 17.7617 21.8217 17.6455C21.8652 17.5656 21.8652 17.5656 21.9095 17.4841C21.9734 17.3746 22.0399 17.2684 22.1086 17.1629C22.166 17.0748 22.1657 16.9607 22.1061 16.874V16.874C22.0634 16.8118 22.0208 16.7496 21.9782 16.6874C21.9567 16.6562 21.9352 16.625 21.913 16.5928C21.7719 16.3867 21.6952 16.2672 21.6902 16.0516C21.6883 15.9713 21.7064 15.8855 21.7525 15.8197V15.8197C21.8051 15.7445 21.8912 15.7034 21.9811 15.6851C22.0369 15.6737 22.0868 15.6716 22.1412 15.682C22.2358 15.7 22.3193 15.7552 22.3877 15.8229C22.4817 15.9158 22.5468 16.0176 22.6262 16.1437C23.1002 16.8666 23.7357 17.3176 24.5313 17.63C24.5466 17.636 24.5624 17.6406 24.5785 17.6438C24.6259 17.653 24.6734 17.6618 24.7209 17.6698C24.7978 17.6827 24.8684 17.6277 24.8777 17.5504V17.5504C24.9209 17.2164 24.9765 16.8997 25.073 16.5818C25.0964 16.5051 25.0616 16.4219 24.9893 16.3873V16.3873C24.9342 16.3603 24.8792 16.3333 24.8225 16.3055C24.768 16.2791 24.7134 16.2527 24.6573 16.2254C24.5217 16.1478 24.4312 16.0669 24.3269 15.9592C24.309 15.9407 24.2847 15.9301 24.2589 15.9301V15.9301C24.2214 15.9301 24.1871 15.9078 24.1722 15.8734C24.1678 15.8633 24.1633 15.8532 24.1589 15.8429C24.082 15.6993 23.988 15.5856 23.8839 15.4608C23.6853 15.2185 23.4997 14.9701 23.3195 14.7135C22.9034 14.1336 22.4042 13.8131 21.7088 13.676C20.7997 13.5557 20.0761 13.8845 19.4467 14.5319ZM29.0259 16.0624C29.0054 16.0794 28.9889 16.0953 28.9717 16.1156C28.7089 16.4258 28.6425 16.7401 28.662 17.1517C28.7167 17.4788 28.8515 17.7269 29.1075 17.9354V17.9354C29.2676 18.0518 29.4576 17.9098 29.4576 17.7118C29.4576 17.2525 29.4576 16.7916 29.4576 16.3241C29.4576 16.0493 29.2375 15.887 29.0259 16.0624V16.0624ZM25.8939 16.9235C25.7551 17.1318 25.7167 17.2682 25.7227 17.5225C25.7236 17.5735 25.7245 17.6245 25.7255 17.677V17.677C25.7275 17.7418 25.7816 17.7928 25.8464 17.7898C26.2179 17.7726 26.5775 17.7273 26.9253 17.6237C27.2845 17.5169 27.5052 17.1329 27.2876 16.8279V16.8279C27.22 16.7331 27.1073 16.623 26.9988 16.5808C26.5719 16.4148 26.2032 16.532 25.8939 16.9235ZM14.3448 16.5515C14.1159 16.5515 13.9305 16.7339 13.9305 16.9627V16.9627C13.9305 17.1915 14.1159 17.3801 14.3447 17.3801C14.4766 17.3801 14.6089 17.3801 14.742 17.3801C14.9708 17.3801 15.1563 17.1977 15.1563 16.9689V16.9689C15.1563 16.7401 14.9708 16.5515 14.742 16.5515C14.6102 16.5515 14.4779 16.5515 14.3448 16.5515ZM23.0813 17.8071C22.936 17.6781 22.7423 17.7707 22.634 17.9321C22.5105 18.116 22.4167 18.3108 22.3488 18.5263C22.3229 18.6086 22.3721 18.6941 22.4548 18.7186V18.7186C23.2685 18.9703 23.8551 19.3562 24.273 20.1229C24.6487 20.8897 24.5613 21.7954 24.5575 22.6299C24.5573 22.7289 24.557 22.8279 24.5568 22.9269C24.5563 23.1296 24.5556 23.3324 24.5548 23.5351C24.5545 23.6019 24.5957 23.6619 24.6582 23.6856V23.6856C25.1149 23.8638 25.4349 24.0681 25.6427 24.532V24.532C25.7004 24.6923 25.8819 24.7932 25.9826 24.6558C26.0221 24.6019 26.056 24.5389 26.0952 24.4671C26.2772 24.0563 26.185 23.6123 26.088 23.1912C26.0773 23.1429 26.0666 23.0946 26.0556 23.0448C26.0203 22.8866 25.9844 22.7285 25.9483 22.5704C25.9235 22.46 25.8987 22.3496 25.8739 22.2392C25.8219 22.0085 25.7696 21.7779 25.7171 21.5473C25.6497 21.2516 25.5833 20.9557 25.5172 20.6597C25.4662 20.432 25.4147 20.2044 25.363 19.9768C25.3383 19.8677 25.3138 19.7586 25.2894 19.6494C25.2553 19.4972 25.2206 19.3451 25.1856 19.1931C25.1707 19.1253 25.1707 19.1253 25.1555 19.0562C25.1458 19.0148 25.1361 18.9734 25.1262 18.9308C25.114 18.8769 25.114 18.8769 25.1015 18.822V18.822C25.0265 18.6254 24.8078 18.5393 24.602 18.4956C24.583 18.4916 24.5639 18.4877 24.5447 18.4838C24.2283 18.4118 23.9466 18.3088 23.6573 18.1601C23.6245 18.1433 23.5918 18.1266 23.558 18.1093C23.3895 18.0196 23.2348 17.9212 23.0813 17.8071V17.8071ZM27.4657 18.3317C27.2401 18.4204 27.0205 18.4813 26.7987 18.5243C26.3328 18.6148 25.973 19.0194 26.084 19.4808V19.4808C26.094 19.523 26.104 19.5653 26.1142 19.6088C26.1358 19.6999 26.1574 19.791 26.179 19.8821C26.2135 20.0269 26.2475 20.1719 26.2814 20.3168C26.3778 20.7288 26.4744 21.1407 26.5723 21.5522C26.6324 21.8047 26.6917 22.0574 26.7504 22.3102C26.7727 22.4057 26.7954 22.5012 26.8184 22.5966C26.9966 23.3371 27.0743 23.9833 26.8838 24.6582C26.8015 24.9499 26.984 25.2724 27.2869 25.2839V25.2839C27.3468 25.2883 27.4067 25.2926 27.4685 25.2971C27.5312 25.2993 27.5823 25.301 27.6259 25.3015C27.9596 25.305 28.2126 25.0195 28.385 24.7337V24.7337C28.4393 24.6546 28.4938 24.5757 28.5486 24.497C28.6007 24.4185 28.6526 24.3399 28.7043 24.2612C28.9478 23.8943 29.2005 23.5373 29.4688 23.1886C29.4927 23.1571 29.5166 23.1256 29.5412 23.0931C29.5622 23.0661 29.5831 23.039 29.6046 23.011C29.6249 22.9793 29.6431 22.9485 29.6597 22.9178C29.7461 22.758 29.7555 22.5654 29.6784 22.4008V22.4008C29.657 22.3498 29.6356 22.2988 29.6135 22.2463C29.5894 22.1914 29.5653 22.1365 29.5404 22.0799C29.516 22.0223 29.4915 21.9647 29.4663 21.9054C29.4002 21.7502 29.3333 21.5954 29.2661 21.4407C29.1971 21.2815 29.1291 21.1219 29.0611 20.9624C28.9538 20.7111 28.8459 20.4601 28.7375 20.2092C28.6124 19.9195 28.4882 19.6294 28.3649 19.3389C28.2025 18.9447 28.1524 18.8231 28.0523 18.6003C27.945 18.3613 27.7078 18.2315 27.4657 18.3317V18.3317ZM18.6145 19.4502C18.2801 19.4509 18.0057 19.7149 17.992 20.049C17.9907 20.0809 17.9894 20.1128 17.9881 20.1448C17.9757 20.4453 18.2148 20.6962 18.5156 20.6984V20.6984C18.6929 20.7004 18.8702 20.7028 19.0475 20.7051C19.17 20.7066 19.2926 20.7077 19.4151 20.7084C19.592 20.7096 19.7688 20.712 19.9457 20.7146C20.0268 20.7147 20.0268 20.7147 20.1096 20.7148C20.6873 20.7261 21.1765 20.8996 21.5919 21.3158C22.0023 21.8139 22.0745 22.3166 22.0867 22.9503V22.9503C22.0956 23.3086 22.3886 23.5944 22.7469 23.5944C22.8023 23.5944 22.8577 23.5944 22.9132 23.5944C23.3693 23.5944 23.7406 23.2267 23.7426 22.7705C23.7427 22.7634 23.7427 22.7563 23.7427 22.7492C23.7432 22.6537 23.7439 22.5582 23.7448 22.4627C23.7495 22.2731 23.7534 22.1113 23.755 21.9696C23.7697 20.6259 22.6539 19.4433 21.3101 19.4457V19.4457C21.2742 19.4456 21.2382 19.4456 21.2012 19.4456C21.084 19.4457 20.9669 19.4461 20.8497 19.4465C20.7678 19.4466 20.686 19.4466 20.6041 19.4467C20.3898 19.4469 20.1755 19.4474 19.9612 19.448C19.7421 19.4485 19.523 19.4487 19.3038 19.449C19.0741 19.4493 18.8443 19.4497 18.6145 19.4502ZM14.9424 22.1347C14.8782 22.2143 14.8176 22.2976 14.7603 22.384C13.8419 23.7706 15.3297 25.2516 16.9928 25.2516C18.334 25.2516 19.6837 25.2516 21.0531 25.2516C21.33 25.2516 21.5152 24.9666 21.4019 24.7139V24.7139C21.3926 24.693 21.3847 24.6708 21.3797 24.6484C21.3353 24.4536 21.3268 24.2734 21.3239 24.0726C21.3223 23.9926 21.3206 23.9126 21.3189 23.8325C21.3164 23.7072 21.3142 23.5819 21.3122 23.4565C21.3101 23.335 21.3075 23.2135 21.3048 23.0919C21.3041 23.0366 21.3041 23.0366 21.3035 22.9802C21.2934 22.5572 21.2165 22.171 20.9048 21.8642C20.5504 21.553 20.241 21.5168 19.7796 21.5155C19.7425 21.5153 19.7055 21.5151 19.6674 21.5149C19.5458 21.5144 19.4241 21.5143 19.3024 21.5143C19.2172 21.5141 19.132 21.5139 19.0467 21.5138C18.8681 21.5134 18.6896 21.5134 18.511 21.5134C18.2835 21.5134 18.0561 21.5127 17.8286 21.5118C17.6525 21.5112 17.4764 21.5111 17.3003 21.5111C17.2165 21.5111 17.1327 21.5108 17.0489 21.5104C16.2607 21.507 15.5314 21.5329 14.9424 22.1347ZM29.9112 23.9671C29.899 23.9884 29.8897 24.0047 29.8826 24.0186C29.8473 24.0876 29.9355 24.146 30.0105 24.1264V24.1264C30.5674 23.9951 31.052 23.9598 31.5741 24.2482C31.9183 24.4811 32.1402 24.801 32.2668 25.1998C32.3676 25.7514 32.3016 26.2145 31.9995 26.688C31.7748 26.9799 31.4542 27.2026 31.0921 27.2712C30.6331 27.3105 30.219 27.3168 29.8152 27.0641C29.7995 27.0557 29.7838 27.0473 29.7681 27.0388C29.6912 26.9975 29.6172 26.9498 29.555 26.8885C29.3952 26.7309 29.288 26.5551 29.2021 26.3546C29.1333 26.194 28.9846 26.0802 28.8098 26.0802V26.0802C28.5447 26.0802 28.3464 26.3325 28.4465 26.578C28.6508 27.0791 28.9587 27.4857 29.4481 27.802C30.0333 28.1338 30.6644 28.1914 31.3207 28.0658C31.9859 27.8637 32.5287 27.393 32.865 26.7831C33.1524 26.2012 33.1888 25.4874 33.0043 24.8632C32.7303 24.156 32.2144 23.6528 31.5442 23.3353C31.4284 23.2901 31.3151 23.2604 31.1942 23.2319C31.1394 23.2149 31.0845 23.1979 31.028 23.1803C30.3956 23.0445 30.1977 23.4698 29.9112 23.9671ZM22.9111 24.4154C22.5809 24.4178 22.3689 24.7742 22.6235 24.9845C22.6883 25.038 22.7595 25.0872 22.8387 25.133C22.8795 25.1566 22.9237 25.1739 22.9696 25.1846C23.2915 25.2597 23.6062 25.2593 23.9382 25.2581C23.9923 25.2583 24.0464 25.2585 24.1021 25.2587C24.178 25.2586 24.253 25.2578 24.3274 25.2557C24.6612 25.2463 24.9514 24.918 24.7367 24.6623V24.6623C24.692 24.6092 24.6246 24.5627 24.5603 24.5366C24.2937 24.4287 24.0624 24.4022 23.761 24.4078C23.7163 24.408 23.6715 24.4083 23.6254 24.4085C23.4838 24.4094 23.3423 24.4113 23.2008 24.4133C23.1042 24.4141 23.0077 24.4148 22.9111 24.4154V24.4154ZM30.1313 25.0877C30.1249 25.0933 30.1193 25.0997 30.1147 25.1068V25.1068C30.073 25.1701 30.1167 25.2547 30.1924 25.2571C30.1961 25.2572 30.2 25.2573 30.204 25.2574C30.284 25.2608 30.3641 25.2643 30.4441 25.2678C30.5043 25.2695 30.5043 25.2695 30.5657 25.2713C30.6237 25.2741 30.6237 25.2741 30.6829 25.2769C30.6899 25.2771 30.696 25.2774 30.7014 25.2776C30.7608 25.2798 30.8214 25.284 30.8755 25.3088C30.8807 25.3112 30.8857 25.3137 30.8907 25.3163C31.0121 25.3802 31.0617 25.5286 31.0602 25.6659V25.6659C31.0602 25.6687 31.0602 25.6716 31.0603 25.6745C31.061 25.7398 31.0596 25.8069 31.0328 25.8665C31.0311 25.8703 31.0293 25.874 31.0275 25.8776C30.9664 25.9994 30.819 26.0497 30.6829 26.0549V26.0549C30.6249 26.0576 30.6249 26.0576 30.5657 26.0604C30.5255 26.0616 30.4854 26.0628 30.4441 26.064C30.383 26.0666 30.383 26.0666 30.3207 26.0693V26.0693C30.1925 26.0748 30.1117 26.2307 30.2113 26.3114C30.2528 26.345 30.3029 26.3739 30.3855 26.4193C30.4136 26.4348 30.4444 26.4452 30.4763 26.4491C30.5966 26.4639 30.7066 26.467 30.815 26.4515C31.0197 26.4221 31.1995 26.296 31.3215 26.129C31.3294 26.1182 31.3371 26.1072 31.3446 26.0961C31.4772 25.9008 31.5238 25.6493 31.4517 25.4245C31.4163 25.3142 31.3586 25.212 31.2724 25.1177C31.0276 24.9071 30.8706 24.8714 30.5582 24.8741C30.3749 24.8952 30.267 24.9683 30.1313 25.0877ZM16.1429 26.0802C15.8778 26.0802 15.6795 26.3325 15.7796 26.578C15.9838 27.0791 16.2918 27.4857 16.7812 27.802C17.3664 28.1338 17.9975 28.1914 18.6538 28.0658C19.3185 27.8638 19.8552 27.3944 20.1981 26.7902C20.2293 26.7237 20.256 26.6569 20.2797 26.5897C20.3694 26.3345 20.1596 26.0802 19.8891 26.0802C19.8668 26.0802 19.8444 26.0802 19.8219 26.0802C19.6882 26.0802 19.5682 26.1625 19.5201 26.2873V26.2873C19.3081 26.7636 19.0054 27.0303 18.5273 27.2195C18.1171 27.3492 17.6737 27.2993 17.2815 27.1361C16.9223 26.942 16.6967 26.692 16.5396 26.3529C16.4661 26.1943 16.3176 26.0802 16.1429 26.0802V26.0802ZM17.9843 26.0802C17.7243 26.0802 17.5772 26.3701 17.8265 26.4438V26.4438C17.8536 26.4518 17.8965 26.4604 17.9247 26.4605C18.1888 26.4617 18.355 26.4303 18.569 26.2438C18.5752 26.2384 18.5806 26.2321 18.5851 26.2253V26.2253C18.6261 26.163 18.5815 26.0802 18.507 26.0802C18.3333 26.0802 18.1593 26.0802 17.9843 26.0802Z" fill="black"/>
</g>
<defs>
<filter id="filter0_d_637_5353" x="0" y="0" width="44" height="44" filterUnits="userSpaceOnUse" color-interpolation-filters="sRGB">
<feFlood flood-opacity="0" result="BackgroundImageFix"/>
<feColorMatrix in="SourceAlpha" type="matrix" values="0 0 0 0 0 0 0 0 0 0 0 0 0 0 0 0 0 0 127 0" result="hardAlpha"/>
<feOffset dy="4"/>
<feGaussianBlur stdDeviation="2"/>
<feComposite in2="hardAlpha" operator="out"/>
<feColorMatrix type="matrix" values="0 0 0 0 0 0 0 0 0 0 0 0 0 0 0 0 0 0 0.1 0"/>
<feBlend mode="normal" in2="BackgroundImageFix" result="effect1_dropShadow_637_5353"/>
<feBlend mode="normal" in="SourceGraphic" in2="effect1_dropShadow_637_5353" result="shape"/>
</filter>
</defs>
</svg>
